Coordinates
version=1
nRows=24
nColumns=22
inDegrees=yes

Units are S.I. units (second, meters, Newtons, ...)
If the header above contains a line with 'inDegrees', this indicates whether rotational values are in degrees (yes) or radians (no).

endheader
time	pelvis_tilt	pelvis_list	pelvis_rotation	pelvis_tx	pelvis_ty	pelvis_tz	hip_flexion_r	hip_adduction_r	hip_rotation_r	knee_angle_r	ankle_angle_r	subtalar_angle_r	hip_flexion_l	hip_adduction_l	hip_rotation_l	knee_angle_l	ankle_angle_l	subtalar_angle_l	lumbar_extension	lumbar_bending	lumbar_rotation
      1.28000000	     -0.41982040	     -1.55185657	     -7.86121695	     -1.10095795	      0.89812979	     -0.36319612	     25.54831365	     -0.38394357	     -0.62430350	    -40.52079603	     17.23809475	     -9.07308367	     -4.00090985	      0.51242536	    -12.36869702	    -15.94989141	     20.75568741	     -3.22769338	    -12.87657947	      0.73319683	      1.27733948
      1.29000000	     -0.46143680	     -1.71027442	     -7.60915895	     -1.09665166	      0.89744080	     -0.36294657	     25.79223354	     -0.32536369	     -1.16627750	    -39.19193725	     17.16897021	     -9.05041090	     -4.27418466	      0.30883059	    -12.16181432	    -15.93627101	     21.01854612	     -3.12464526	    -12.89255494	      0.94222500	      1.17695771
      1.30000000	     -0.31814592	     -1.83712806	     -7.27953136	     -1.09225267	      0.89701211	     -0.36292558	     25.81081208	     -0.32306937	     -1.54913375	    -37.83175039	     17.08514519	     -8.86866553	     -4.76863364	      0.19042480	    -11.88771041	    -15.86642752	     21.18867659	     -3.01125737	    -13.13577251	      1.15009043	      0.98173306
      1.31000000	     -0.34483002	     -1.99696403	     -6.94782758	     -1.08786115	      0.89624006	     -0.36269706	     25.97112020	     -0.24048965	     -1.93443033	    -36.39729552	     16.91312059	     -8.61181976	     -4.99007372	     -0.03356279	    -11.65555336	    -15.95647594	     21.51079202	     -2.93451852	    -13.16692846	      1.35280239	      0.92047544
      1.32000000	     -0.24660291	     -2.14178702	     -6.80328215	     -1.08298340	      0.89544853	     -0.36198817	     25.96764893	     -0.09982538	     -2.16703423	    -34.92853361	     16.80266382	     -8.15810662	     -5.46784375	     -0.22188707	    -11.60801922	    -15.95791537	     21.75180589	     -2.71200124	    -13.35508001	      1.51972468	      0.86309382
      1.33000000	     -0.22085466	     -2.26913104	     -6.41020400	     -1.07839315	      0.89461019	     -0.36182214	     26.03526005	     -0.10272708	     -2.65349536	    -33.44113135	     16.66351707	     -7.67106520	     -5.79700248	     -0.40729136	    -11.25205148	    -15.94838587	     22.00164297	     -2.53343330	    -13.47869086	      1.74799805	      0.57991395
      1.34000000	     -0.26043240	     -2.37172594	     -6.24244378	     -1.07354785	      0.89358984	     -0.36112092	     26.17696041	      0.03064798	     -2.77367048	    -31.94106291	     16.39795988	     -6.75890831	     -6.07932913	     -0.59738593	    -11.23822002	    -15.99978072	     22.23213385	     -2.47832072	    -13.50074240	      1.87991613	      0.56901034
      1.35000000	     -0.20876604	     -2.52339980	     -6.20880974	     -1.06842478	      0.89262581	     -0.35986578	     26.19989942	      0.26926694	     -2.75565680	    -30.48241219	     16.31015437	     -6.35208328	     -6.46600777	     -0.82584859	    -11.27496405	    -16.11757569	     22.49813817	     -2.34867401	    -13.60117063	      2.00040245	      0.66918819
      1.36000000	     -0.21664300	     -2.64947026	     -5.89136273	     -1.06330369	      0.89154190	     -0.35945785	     26.23797937	      0.30210853	     -3.10758349	    -28.97871128	     16.22277987	     -5.62007138	     -6.79909584	     -0.97929719	    -10.81076208	    -16.13585941	     22.76888946	     -2.20915949	    -13.66610870	      2.22278485	      0.52111240
      1.37000000	     -0.17387779	     -2.75453702	     -5.69095778	     -1.05805182	      0.89055995	     -0.35841255	     26.21124858	      0.40008903	     -3.28529400	    -27.51193703	     16.13337813	     -5.13041421	     -7.17010653	     -1.15538606	    -10.56150775	    -16.21331969	     23.02396143	     -2.13005470	    -13.77119644	      2.34961262	      0.46648093
      1.38000000	     -0.14714834	     -2.94063399	     -5.49422616	     -1.05260298	      0.88950543	     -0.35746028	     26.19829191	      0.53917767	     -3.57229802	    -26.15353090	     16.12045466	     -5.11169322	     -7.49960789	     -1.44061743	    -10.37932757	    -16.39868612	     23.27045336	     -2.03946924	    -13.85372189	      2.57888793	      0.42454183
      1.39000000	     -0.08918508	     -3.10938408	     -5.35964439	     -1.04695455	      0.88848693	     -0.35611719	     26.12846304	      0.74055569	     -3.73915789	    -24.80974897	     15.90975604	     -4.31443543	     -7.92195394	     -1.71261611	    -10.36095591	    -16.50774711	     23.40812569	     -1.78409850	    -13.96531492	      2.75830380	      0.51195672
      1.40000000	     -0.08189836	     -3.28237834	     -5.12069055	     -1.04126765	      0.88738178	     -0.35510640	     26.10025673	      0.85404260	     -4.04902484	    -23.56557471	     15.78863103	     -4.16925706	     -8.28742584	     -1.98377001	    -10.14711828	    -16.61237790	     23.53427942	     -1.71435767	    -14.03636429	      3.01006302	      0.33842276
      1.41000000	     -0.06766639	     -3.50008471	     -5.01064603	     -1.03526168	      0.88620368	     -0.35364796	     26.09943717	      1.09528867	     -4.20318738	    -22.51739869	     15.70010578	     -3.86443005	     -8.62895960	     -2.33059851	    -10.22749896	    -16.87061251	     23.68151932	     -1.65230095	    -14.09729999	      3.26854973	      0.36090917
      1.42000000	      0.07516989	     -3.68337554	     -4.75929461	     -1.02917242	      0.88533976	     -0.35222910	     25.94136546	      1.21827194	     -4.61772719	    -21.54412414	     15.54458559	     -3.42299143	     -9.14600138	     -2.61464412	     -9.84581673	    -17.00582622	     23.82100489	     -1.45615460	    -14.31629580	      3.42792427	      0.29225932
      1.43000000	      0.11857276	     -3.79875056	     -4.52856163	     -1.02284843	      0.88411971	     -0.35093464	     25.97372513	      1.27658486	     -4.92670878	    -20.87103633	     15.56007040	     -3.26301241	     -9.50018447	     -2.85968783	     -9.67321959	    -17.29933175	     23.84323286	     -1.31416673	    -14.34963440	      3.63206919	      0.08349515
      1.44000000	      0.24406777	     -3.90215045	     -4.42051814	     -1.01648147	      0.88325200	     -0.34913185	     25.88020916	      1.39407371	     -4.97435844	    -20.25757308	     15.32300102	     -3.18252730	    -10.03674189	     -3.06482183	     -9.56546810	    -17.40356465	     23.84362872	     -1.31585529	    -14.51742673	      3.71354100	      0.04627907
      1.45000000	      0.28943947	     -4.02186820	     -4.13914501	     -1.01018807	      0.88206588	     -0.34749256	     25.89952544	      1.46924303	     -5.26430458	    -19.82006455	     15.18522475	     -2.94160325	    -10.32874239	     -3.35704766	     -9.23361160	    -17.78261998	     23.96648933	     -1.27245321	    -14.61723803	      3.87069576	     -0.18377153
      1.46000000	      0.36294251	     -4.21073349	     -3.91143119	     -1.00343228	      0.88108985	     -0.34577330	     25.80605661	      1.60972667	     -5.58288332	    -19.45007486	     15.12026140	     -3.03651366	    -10.66631517	     -3.72748376	     -9.07782767	    -18.21999369	     23.92088292	     -1.25838950	    -14.69150508	      4.09683233	     -0.34388027
      1.47000000	      0.53481986	     -4.28691944	     -3.70345368	     -0.99612674	      0.88022963	     -0.34390249	     25.55632400	      1.63274232	     -6.21837249	    -19.13704839	     15.29198550	     -3.14178180	    -11.33605133	     -3.93176865	     -8.92909152	    -18.27149453	     23.75904855	     -1.08747049	    -14.81522729	      4.16117985	     -0.48936663
      1.48000000	      0.71115292	     -4.37310071	     -3.55792231	     -0.98865629	      0.87939589	     -0.34179489	     25.33806344	      1.70154587	     -6.84525185	    -19.05622119	     15.47003209	     -3.32640325	    -11.99389907	     -4.13663698	     -8.70724125	    -18.38177688	     23.64066222	     -1.00139452	    -14.90104709	      4.23662170	     -0.57519951
      1.49000000	      0.84745264	     -4.45636518	     -3.21114147	     -0.98109345	      0.87864879	     -0.33991175	     25.11264459	      1.65083846	     -7.73703339	    -19.09318388	     15.52349134	     -3.66726458	    -12.42495831	     -4.43160061	     -8.35775866	    -18.81040933	     23.31976943	     -0.90026267	    -14.95025195	      4.38065294	     -0.93493931
      1.50000000	      1.03960625	     -4.56184893	     -2.95135007	     -0.97296394	      0.87803428	     -0.33782342	     24.70618313	      1.68517709	     -8.66718552	    -19.15748407	     15.46131388	     -4.02454252	    -13.15034857	     -4.70059383	     -8.06741986	    -18.87945878	     23.00499739	     -0.69430969	    -15.00431519	      4.51578678	     -1.23438569
      1.51000000	      1.12455635	     -4.57148969	     -2.77569092	     -0.96484232	      0.87737350	     -0.33568012	     24.45268373	      1.65250219	     -9.34540342	    -19.44792580	     15.65331610	     -4.29319131	    -13.69481631	     -4.86864035	     -7.80175732	    -19.04736520	     22.47694496	     -0.62258251	    -14.92379099	      4.56788390	     -1.51514481
